<?xml version="1.0" encoding="UTF-8" standalone="no"?>
<!DOCTYPE svg PUBLIC "-//W3C//DTD SVG 1.1//EN"
 "http://www.w3.org/Graphics/SVG/1.1/DTD/svg11.dtd">
<!-- Generated by graphviz version 2.38.0 (20140413.2041)
 -->
<!-- Title: controllers_diagram Pages: 1 -->
<svg width="670pt" height="675pt"
 viewBox="0.00 0.00 670.15 675.00" xmlns="http://www.w3.org/2000/svg" xmlns:xlink="http://www.w3.org/1999/xlink">
<g id="graph0" class="graph" transform="scale(1 1) rotate(0) translate(256.324 419.5)">
<title>controllers_diagram</title>
<polygon fill="none" stroke="none" points="-256.324,255.5 -256.324,-419.5 413.821,-419.5 413.821,255.5 -256.324,255.5"/>
<!-- _diagram_info -->
<g id="node1" class="node"><title>_diagram_info</title>
<text text-anchor="start" x="116.312" y="156.9" font-family="Times,serif" font-size="13.00">Controllers diagram</text>
<text text-anchor="start" x="116.312" y="169.9" font-family="Times,serif" font-size="13.00">Date: Aug 09 2016 &#45; 15:40</text>
<text text-anchor="start" x="116.312" y="182.9" font-family="Times,serif" font-size="13.00">Migration version: 20160809010244</text>
<text text-anchor="start" x="116.312" y="195.9" font-family="Times,serif" font-size="13.00">Generated by RailRoady 1.5.1</text>
<text text-anchor="start" x="116.312" y="208.9" font-family="Times,serif" font-size="13.00">http://railroady.prestonlee.com</text>
</g>
<!-- ApplicationController -->
<g id="node2" class="node"><title>ApplicationController</title>
<path fill="none" stroke="black" d="M-77.8208,251C-77.8208,251 37.8208,251 37.8208,251 43.8208,251 49.8208,245 49.8208,239 49.8208,239 49.8208,171 49.8208,171 49.8208,165 43.8208,159 37.8208,159 37.8208,159 -77.8208,159 -77.8208,159 -83.8208,159 -89.8208,165 -89.8208,171 -89.8208,171 -89.8208,239 -89.8208,239 -89.8208,245 -83.8208,251 -77.8208,251"/>
<text text-anchor="middle" x="-20" y="174.2" font-family="Times,serif" font-size="14.00">ApplicationController</text>
<polyline fill="none" stroke="black" points="-89.8208,181 49.8208,181 "/>
<polyline fill="none" stroke="black" points="-89.8208,205 49.8208,205 "/>
<polyline fill="none" stroke="black" points="-89.8208,229 49.8208,229 "/>
<text text-anchor="start" x="-81.8208" y="244.2" font-family="Times,serif" font-size="14.00">_layout</text>
</g>
<!-- CommentsController -->
<g id="node3" class="node"><title>CommentsController</title>
<path fill="none" stroke="black" d="M137.893,-127C137.893,-127 248.107,-127 248.107,-127 254.107,-127 260.107,-133 260.107,-139 260.107,-139 260.107,-317 260.107,-317 260.107,-323 254.107,-329 248.107,-329 248.107,-329 137.893,-329 137.893,-329 131.893,-329 125.893,-323 125.893,-317 125.893,-317 125.893,-139 125.893,-139 125.893,-133 131.893,-127 137.893,-127"/>
<text text-anchor="middle" x="193" y="-313.8" font-family="Times,serif" font-size="14.00">CommentsController</text>
<polyline fill="none" stroke="black" points="125.893,-307 260.107,-307 "/>
<text text-anchor="start" x="133.893" y="-291.8" font-family="Times,serif" font-size="14.00">create</text>
<text text-anchor="start" x="133.893" y="-277.8" font-family="Times,serif" font-size="14.00">destroy</text>
<text text-anchor="start" x="133.893" y="-263.8" font-family="Times,serif" font-size="14.00">edit</text>
<text text-anchor="start" x="133.893" y="-249.8" font-family="Times,serif" font-size="14.00">index</text>
<text text-anchor="start" x="133.893" y="-235.8" font-family="Times,serif" font-size="14.00">new</text>
<text text-anchor="start" x="133.893" y="-221.8" font-family="Times,serif" font-size="14.00">show</text>
<text text-anchor="start" x="133.893" y="-207.8" font-family="Times,serif" font-size="14.00">update</text>
<polyline fill="none" stroke="black" points="125.893,-201 260.107,-201 "/>
<polyline fill="none" stroke="black" points="125.893,-177 260.107,-177 "/>
<text text-anchor="start" x="133.893" y="-161.8" font-family="Times,serif" font-size="14.00">_layout</text>
<text text-anchor="start" x="133.893" y="-147.8" font-family="Times,serif" font-size="14.00">comment_params</text>
<text text-anchor="start" x="133.893" y="-133.8" font-family="Times,serif" font-size="14.00">set_comment</text>
</g>
<!-- CompaniesController -->
<g id="node4" class="node"><title>CompaniesController</title>
<path fill="none" stroke="black" d="M-42.269,-163C-42.269,-163 70.269,-163 70.269,-163 76.269,-163 82.269,-169 82.269,-175 82.269,-175 82.269,-353 82.269,-353 82.269,-359 76.269,-365 70.269,-365 70.269,-365 -42.269,-365 -42.269,-365 -48.269,-365 -54.269,-359 -54.269,-353 -54.269,-353 -54.269,-175 -54.269,-175 -54.269,-169 -48.269,-163 -42.269,-163"/>
<text text-anchor="middle" x="14" y="-349.8" font-family="Times,serif" font-size="14.00">CompaniesController</text>
<polyline fill="none" stroke="black" points="-54.269,-343 82.269,-343 "/>
<text text-anchor="start" x="-46.269" y="-327.8" font-family="Times,serif" font-size="14.00">create</text>
<text text-anchor="start" x="-46.269" y="-313.8" font-family="Times,serif" font-size="14.00">destroy</text>
<text text-anchor="start" x="-46.269" y="-299.8" font-family="Times,serif" font-size="14.00">edit</text>
<text text-anchor="start" x="-46.269" y="-285.8" font-family="Times,serif" font-size="14.00">index</text>
<text text-anchor="start" x="-46.269" y="-271.8" font-family="Times,serif" font-size="14.00">new</text>
<text text-anchor="start" x="-46.269" y="-257.8" font-family="Times,serif" font-size="14.00">show</text>
<text text-anchor="start" x="-46.269" y="-243.8" font-family="Times,serif" font-size="14.00">update</text>
<polyline fill="none" stroke="black" points="-54.269,-237 82.269,-237 "/>
<polyline fill="none" stroke="black" points="-54.269,-213 82.269,-213 "/>
<text text-anchor="start" x="-46.269" y="-197.8" font-family="Times,serif" font-size="14.00">_layout</text>
<text text-anchor="start" x="-46.269" y="-183.8" font-family="Times,serif" font-size="14.00">company_params</text>
<text text-anchor="start" x="-46.269" y="-169.8" font-family="Times,serif" font-size="14.00">set_company</text>
</g>
<!-- DashboardsController -->
<g id="node5" class="node"><title>DashboardsController</title>
<path fill="none" stroke="black" d="M282.179,107C282.179,107 397.821,107 397.821,107 403.821,107 409.821,101 409.821,95 409.821,95 409.821,15 409.821,15 409.821,9 403.821,3 397.821,3 397.821,3 282.179,3 282.179,3 276.179,3 270.179,9 270.179,15 270.179,15 270.179,95 270.179,95 270.179,101 276.179,107 282.179,107"/>
<text text-anchor="middle" x="340" y="18.2" font-family="Times,serif" font-size="14.00">DashboardsController</text>
<polyline fill="none" stroke="black" points="270.179,25 409.821,25 "/>
<text text-anchor="start" x="278.179" y="40.2" font-family="Times,serif" font-size="14.00">index</text>
<text text-anchor="start" x="278.179" y="54.2" font-family="Times,serif" font-size="14.00">show</text>
<polyline fill="none" stroke="black" points="270.179,61 409.821,61 "/>
<polyline fill="none" stroke="black" points="270.179,85 409.821,85 "/>
<text text-anchor="start" x="278.179" y="100.2" font-family="Times,serif" font-size="14.00">_layout</text>
</g>
<!-- IssueTypesController -->
<g id="node6" class="node"><title>IssueTypesController</title>
<path fill="none" stroke="black" d="M120.223,107C120.223,107 231.777,107 231.777,107 237.777,107 243.777,101 243.777,95 243.777,95 243.777,-83 243.777,-83 243.777,-89 237.777,-95 231.777,-95 231.777,-95 120.223,-95 120.223,-95 114.223,-95 108.223,-89 108.223,-83 108.223,-83 108.223,95 108.223,95 108.223,101 114.223,107 120.223,107"/>
<text text-anchor="middle" x="176" y="-79.8" font-family="Times,serif" font-size="14.00">IssueTypesController</text>
<polyline fill="none" stroke="black" points="108.223,-73 243.777,-73 "/>
<text text-anchor="start" x="116.223" y="-57.8" font-family="Times,serif" font-size="14.00">create</text>
<text text-anchor="start" x="116.223" y="-43.8" font-family="Times,serif" font-size="14.00">destroy</text>
<text text-anchor="start" x="116.223" y="-29.8" font-family="Times,serif" font-size="14.00">edit</text>
<text text-anchor="start" x="116.223" y="-15.8" font-family="Times,serif" font-size="14.00">index</text>
<text text-anchor="start" x="116.223" y="-1.8" font-family="Times,serif" font-size="14.00">new</text>
<text text-anchor="start" x="116.223" y="12.2" font-family="Times,serif" font-size="14.00">show</text>
<text text-anchor="start" x="116.223" y="26.2" font-family="Times,serif" font-size="14.00">update</text>
<polyline fill="none" stroke="black" points="108.223,33 243.777,33 "/>
<polyline fill="none" stroke="black" points="108.223,57 243.777,57 "/>
<text text-anchor="start" x="116.223" y="72.2" font-family="Times,serif" font-size="14.00">_layout</text>
<text text-anchor="start" x="116.223" y="86.2" font-family="Times,serif" font-size="14.00">issue_type_params</text>
<text text-anchor="start" x="116.223" y="100.2" font-family="Times,serif" font-size="14.00">set_issue_type</text>
</g>
<!-- PicturesController -->
<g id="node7" class="node"><title>PicturesController</title>
<path fill="none" stroke="black" d="M-240.324,197C-240.324,197 -145.676,197 -145.676,197 -139.676,197 -133.676,191 -133.676,185 -133.676,185 -133.676,91 -133.676,91 -133.676,85 -139.676,79 -145.676,79 -145.676,79 -240.324,79 -240.324,79 -246.324,79 -252.324,85 -252.324,91 -252.324,91 -252.324,185 -252.324,185 -252.324,191 -246.324,197 -240.324,197"/>
<text text-anchor="middle" x="-193" y="94.2" font-family="Times,serif" font-size="14.00">PicturesController</text>
<polyline fill="none" stroke="black" points="-252.324,101 -133.676,101 "/>
<text text-anchor="start" x="-244.324" y="116.2" font-family="Times,serif" font-size="14.00">show</text>
<text text-anchor="start" x="-244.324" y="130.2" font-family="Times,serif" font-size="14.00">thumb</text>
<polyline fill="none" stroke="black" points="-252.324,137 -133.676,137 "/>
<polyline fill="none" stroke="black" points="-252.324,161 -133.676,161 "/>
<text text-anchor="start" x="-244.324" y="176.2" font-family="Times,serif" font-size="14.00">_layout</text>
<text text-anchor="start" x="-244.324" y="190.2" font-family="Times,serif" font-size="14.00">set_picture</text>
</g>
<!-- TagsController -->
<g id="node8" class="node"><title>TagsController</title>
<path fill="none" stroke="black" d="M-203.891,35C-203.891,35 -128.109,35 -128.109,35 -122.109,35 -116.109,29 -116.109,23 -116.109,23 -116.109,-155 -116.109,-155 -116.109,-161 -122.109,-167 -128.109,-167 -128.109,-167 -203.891,-167 -203.891,-167 -209.891,-167 -215.891,-161 -215.891,-155 -215.891,-155 -215.891,23 -215.891,23 -215.891,29 -209.891,35 -203.891,35"/>
<text text-anchor="middle" x="-166" y="-151.8" font-family="Times,serif" font-size="14.00">TagsController</text>
<polyline fill="none" stroke="black" points="-215.891,-145 -116.109,-145 "/>
<text text-anchor="start" x="-207.891" y="-129.8" font-family="Times,serif" font-size="14.00">create</text>
<text text-anchor="start" x="-207.891" y="-115.8" font-family="Times,serif" font-size="14.00">destroy</text>
<text text-anchor="start" x="-207.891" y="-101.8" font-family="Times,serif" font-size="14.00">edit</text>
<text text-anchor="start" x="-207.891" y="-87.8" font-family="Times,serif" font-size="14.00">index</text>
<text text-anchor="start" x="-207.891" y="-73.8" font-family="Times,serif" font-size="14.00">new</text>
<text text-anchor="start" x="-207.891" y="-59.8" font-family="Times,serif" font-size="14.00">show</text>
<text text-anchor="start" x="-207.891" y="-45.8" font-family="Times,serif" font-size="14.00">update</text>
<polyline fill="none" stroke="black" points="-215.891,-39 -116.109,-39 "/>
<polyline fill="none" stroke="black" points="-215.891,-15 -116.109,-15 "/>
<text text-anchor="start" x="-207.891" y="0.2" font-family="Times,serif" font-size="14.00">_layout</text>
<text text-anchor="start" x="-207.891" y="14.2" font-family="Times,serif" font-size="14.00">set_tag</text>
<text text-anchor="start" x="-207.891" y="28.2" font-family="Times,serif" font-size="14.00">tag_params</text>
</g>
<!-- TicketsController -->
<g id="node9" class="node"><title>TicketsController</title>
<path fill="none" stroke="black" d="M-78.2451,125C-78.2451,125 62.2451,125 62.2451,125 68.2451,125 74.2451,119 74.2451,113 74.2451,113 74.2451,-107 74.2451,-107 74.2451,-113 68.2451,-119 62.2451,-119 62.2451,-119 -78.2451,-119 -78.2451,-119 -84.2451,-119 -90.2451,-113 -90.2451,-107 -90.2451,-107 -90.2451,113 -90.2451,113 -90.2451,119 -84.2451,125 -78.2451,125"/>
<text text-anchor="middle" x="-8" y="-103.8" font-family="Times,serif" font-size="14.00">TicketsController</text>
<polyline fill="none" stroke="black" points="-90.2451,-97 74.2451,-97 "/>
<text text-anchor="start" x="-82.2451" y="-81.8" font-family="Times,serif" font-size="14.00">change_status</text>
<text text-anchor="start" x="-82.2451" y="-67.8" font-family="Times,serif" font-size="14.00">create</text>
<text text-anchor="start" x="-82.2451" y="-53.8" font-family="Times,serif" font-size="14.00">destroy</text>
<text text-anchor="start" x="-82.2451" y="-39.8" font-family="Times,serif" font-size="14.00">edit</text>
<text text-anchor="start" x="-82.2451" y="-25.8" font-family="Times,serif" font-size="14.00">index</text>
<text text-anchor="start" x="-82.2451" y="-11.8" font-family="Times,serif" font-size="14.00">new</text>
<text text-anchor="start" x="-82.2451" y="2.2" font-family="Times,serif" font-size="14.00">show</text>
<text text-anchor="start" x="-82.2451" y="16.2" font-family="Times,serif" font-size="14.00">update</text>
<polyline fill="none" stroke="black" points="-90.2451,23 74.2451,23 "/>
<polyline fill="none" stroke="black" points="-90.2451,47 74.2451,47 "/>
<text text-anchor="start" x="-82.2451" y="62.2" font-family="Times,serif" font-size="14.00">_layout</text>
<text text-anchor="start" x="-82.2451" y="76.2" font-family="Times,serif" font-size="14.00">can_change</text>
<text text-anchor="start" x="-82.2451" y="90.2" font-family="Times,serif" font-size="14.00">set_ticket</text>
<text text-anchor="start" x="-82.2451" y="104.2" font-family="Times,serif" font-size="14.00">ticket_params</text>
<text text-anchor="start" x="-82.2451" y="118.2" font-family="Times,serif" font-size="14.00">ticket_params_for_change</text>
</g>
<!-- UsersController -->
<g id="node10" class="node"><title>UsersController</title>
<path fill="none" stroke="black" d="M-185.714,-199C-185.714,-199 -104.286,-199 -104.286,-199 -98.2861,-199 -92.2861,-205 -92.2861,-211 -92.2861,-211 -92.2861,-403 -92.2861,-403 -92.2861,-409 -98.2861,-415 -104.286,-415 -104.286,-415 -185.714,-415 -185.714,-415 -191.714,-415 -197.714,-409 -197.714,-403 -197.714,-403 -197.714,-211 -197.714,-211 -197.714,-205 -191.714,-199 -185.714,-199"/>
<text text-anchor="middle" x="-145" y="-399.8" font-family="Times,serif" font-size="14.00">UsersController</text>
<polyline fill="none" stroke="black" points="-197.714,-393 -92.2861,-393 "/>
<text text-anchor="start" x="-189.714" y="-377.8" font-family="Times,serif" font-size="14.00">change_status</text>
<text text-anchor="start" x="-189.714" y="-363.8" font-family="Times,serif" font-size="14.00">create</text>
<text text-anchor="start" x="-189.714" y="-349.8" font-family="Times,serif" font-size="14.00">destroy</text>
<text text-anchor="start" x="-189.714" y="-335.8" font-family="Times,serif" font-size="14.00">edit</text>
<text text-anchor="start" x="-189.714" y="-321.8" font-family="Times,serif" font-size="14.00">index</text>
<text text-anchor="start" x="-189.714" y="-307.8" font-family="Times,serif" font-size="14.00">new</text>
<text text-anchor="start" x="-189.714" y="-293.8" font-family="Times,serif" font-size="14.00">show</text>
<text text-anchor="start" x="-189.714" y="-279.8" font-family="Times,serif" font-size="14.00">update</text>
<polyline fill="none" stroke="black" points="-197.714,-273 -92.2861,-273 "/>
<polyline fill="none" stroke="black" points="-197.714,-249 -92.2861,-249 "/>
<text text-anchor="start" x="-189.714" y="-233.8" font-family="Times,serif" font-size="14.00">_layout</text>
<text text-anchor="start" x="-189.714" y="-219.8" font-family="Times,serif" font-size="14.00">set_user</text>
<text text-anchor="start" x="-189.714" y="-205.8" font-family="Times,serif" font-size="14.00">user_params</text>
</g>
</g>
</svg>
