<?xml version="1.0" encoding="UTF-8" standalone="no"?>
<!DOCTYPE svg PUBLIC "-//W3C//DTD SVG 1.1//EN"
 "http://www.w3.org/Graphics/SVG/1.1/DTD/svg11.dtd">
<!-- Generated by graphviz version 2.38.0 (20140413.2041)
 -->
<!-- Title: models_diagram Pages: 1 -->
<svg width="600pt" height="313pt"
 viewBox="0.00 0.00 599.52 313.00" xmlns="http://www.w3.org/2000/svg" xmlns:xlink="http://www.w3.org/1999/xlink">
<g id="graph0" class="graph" transform="scale(1 1) rotate(0) translate(4 309)">
<title>models_diagram</title>
<polygon fill="none" stroke="none" points="-4,4 -4,-309 595.523,-309 595.523,4 -4,4"/>
<!-- _diagram_info -->
<g id="node1" class="node"><title>_diagram_info</title>
<text text-anchor="start" x="8" y="-290.6" font-family="Times,serif" font-size="13.00">Models diagram</text>
<text text-anchor="start" x="8" y="-277.6" font-family="Times,serif" font-size="13.00">Date: Aug 09 2016 &#45; 15:40</text>
<text text-anchor="start" x="8" y="-264.6" font-family="Times,serif" font-size="13.00">Migration version: 20160809010244</text>
<text text-anchor="start" x="8" y="-251.6" font-family="Times,serif" font-size="13.00">Generated by RailRoady 1.5.1</text>
<text text-anchor="start" x="8" y="-238.6" font-family="Times,serif" font-size="13.00">http://railroady.prestonlee.com</text>
</g>
<!-- Comment -->
<g id="node2" class="node"><title>Comment</title>
<ellipse fill="none" stroke="black" cx="407.688" cy="-91" rx="44.9768" ry="18"/>
<text text-anchor="middle" x="407.688" y="-86.8" font-family="Times,serif" font-size="14.00">Comment</text>
</g>
<!-- Picture -->
<g id="node5" class="node"><title>Picture</title>
<ellipse fill="none" stroke="black" cx="358.688" cy="-18" rx="35.3129" ry="18"/>
<text text-anchor="middle" x="358.688" y="-13.8" font-family="Times,serif" font-size="14.00">Picture</text>
</g>
<!-- Comment&#45;&gt;Picture -->
<g id="edge1" class="edge"><title>Comment&#45;&gt;Picture</title>
<path fill="none" stroke="#43a931" d="M391.631,-66.7335C386.546,-59.3658 380.908,-51.1971 375.755,-43.7305"/>
<ellipse fill="none" stroke="#43a931" cx="394.051" cy="-70.2406" rx="4.00002" ry="4.00002"/>
<polygon fill="#43a931" stroke="#43a931" points="375.671,-43.6083 373.694,-32.8219 372.831,-39.4931 369.991,-35.378 369.991,-35.378 369.991,-35.378 372.831,-39.4931 366.287,-37.934 375.671,-43.6083 375.671,-43.6083"/>
</g>
<!-- Company -->
<g id="node3" class="node"><title>Company</title>
<ellipse fill="none" stroke="black" cx="341.688" cy="-268.5" rx="44.4923" ry="18"/>
<text text-anchor="middle" x="341.688" y="-264.3" font-family="Times,serif" font-size="14.00">Company</text>
</g>
<!-- Ticket -->
<g id="node7" class="node"><title>Ticket</title>
<ellipse fill="none" stroke="black" cx="340.688" cy="-164" rx="32.2768" ry="18"/>
<text text-anchor="middle" x="340.688" y="-159.8" font-family="Times,serif" font-size="14.00">Ticket</text>
</g>
<!-- Company&#45;&gt;Ticket -->
<g id="edge2" class="edge"><title>Company&#45;&gt;Ticket</title>
<path fill="none" stroke="#e18464" d="M341.439,-242.017C341.291,-226.84 341.103,-207.589 340.952,-192.13"/>
<ellipse fill="none" stroke="#e18464" cx="341.479" cy="-246.112" rx="4" ry="4"/>
<polygon fill="#e18464" stroke="#e18464" points="340.953,-192.13 345.355,-182.087 340.904,-187.131 340.855,-182.131 340.855,-182.131 340.855,-182.131 340.904,-187.131 336.355,-182.175 340.953,-192.13 340.953,-192.13"/>
</g>
<!-- IssueType -->
<g id="node4" class="node"><title>IssueType</title>
<ellipse fill="none" stroke="black" cx="545.688" cy="-268.5" rx="45.6701" ry="18"/>
<text text-anchor="middle" x="545.688" y="-264.3" font-family="Times,serif" font-size="14.00">IssueType</text>
</g>
<!-- Tag -->
<g id="node6" class="node"><title>Tag</title>
<ellipse fill="none" stroke="black" cx="252.688" cy="-268.5" rx="27" ry="18"/>
<text text-anchor="middle" x="252.688" y="-264.3" font-family="Times,serif" font-size="14.00">Tag</text>
</g>
<!-- Tag&#45;&gt;Ticket -->
<g id="edge4" class="edge"><title>Tag&#45;&gt;Ticket</title>
<path fill="none" stroke="#d531f9" d="M272.387,-244.554C286.786,-227.784 306.242,-205.121 320.706,-188.274"/>
<polygon fill="#d531f9" stroke="#d531f9" points="272.186,-244.788 262.258,-249.444 268.929,-248.582 265.672,-252.376 265.672,-252.376 265.672,-252.376 268.929,-248.582 269.087,-255.307 272.186,-244.788 272.186,-244.788"/>
<polygon fill="#d531f9" stroke="#d531f9" points="320.847,-188.11 330.776,-183.454 324.104,-184.316 327.361,-180.522 327.361,-180.522 327.361,-180.522 324.104,-184.316 323.947,-177.591 320.847,-188.11 320.847,-188.11"/>
</g>
<!-- TicketsTag -->
<g id="node8" class="node"><title>TicketsTag</title>
<ellipse fill="none" stroke="black" cx="256.688" cy="-91" rx="48.9222" ry="18"/>
<text text-anchor="middle" x="256.688" y="-86.8" font-family="Times,serif" font-size="14.00">TicketsTag</text>
</g>
<!-- Tag&#45;&gt;TicketsTag -->
<g id="edge3" class="edge"><title>Tag&#45;&gt;TicketsTag</title>
<path fill="none" stroke="#133b0e" d="M253.263,-242.247C254.008,-209.578 255.3,-152.883 256.066,-119.262"/>
<ellipse fill="none" stroke="#133b0e" cx="253.17" cy="-246.354" rx="4" ry="4"/>
<polygon fill="#133b0e" stroke="#133b0e" points="256.067,-119.214 260.794,-109.319 256.181,-114.216 256.295,-109.217 256.295,-109.217 256.295,-109.217 256.181,-114.216 251.797,-109.114 256.067,-119.214 256.067,-119.214"/>
</g>
<!-- Ticket&#45;&gt;Comment -->
<g id="edge5" class="edge"><title>Ticket&#45;&gt;Comment</title>
<path fill="none" stroke="#de40e8" d="M360.937,-141.542C368.699,-133.316 377.593,-123.891 385.526,-115.485"/>
<ellipse fill="none" stroke="#de40e8" cx="357.971" cy="-144.685" rx="4.00002" ry="4.00002"/>
<polygon fill="#de40e8" stroke="#de40e8" points="385.617,-115.388 395.753,-111.204 389.049,-111.752 392.48,-108.115 392.48,-108.115 392.48,-108.115 389.049,-111.752 389.208,-105.027 385.617,-115.388 385.617,-115.388"/>
</g>
<!-- Ticket&#45;&gt;Picture -->
<g id="edge6" class="edge"><title>Ticket&#45;&gt;Picture</title>
<path fill="none" stroke="#ac2131" d="M343.833,-137.838C347.041,-112.172 352.003,-72.4773 355.297,-46.1235"/>
<ellipse fill="none" stroke="#ac2131" cx="343.319" cy="-141.947" rx="4.00001" ry="4.00001"/>
<polygon fill="#ac2131" stroke="#ac2131" points="355.315,-45.9847 361.02,-36.6201 355.935,-41.0233 356.555,-36.0619 356.555,-36.0619 356.555,-36.0619 355.935,-41.0233 352.09,-35.5037 355.315,-45.9847 355.315,-45.9847"/>
</g>
<!-- Ticket&#45;&gt;TicketsTag -->
<g id="edge7" class="edge"><title>Ticket&#45;&gt;TicketsTag</title>
<path fill="none" stroke="#32645d" d="M317.469,-143.375C306.809,-134.364 294.116,-123.636 283.093,-114.319"/>
<ellipse fill="none" stroke="#32645d" cx="320.634" cy="-146.05" rx="4.00002" ry="4.00002"/>
<polygon fill="#32645d" stroke="#32645d" points="283.052,-114.284 278.32,-104.392 279.234,-111.057 275.415,-107.829 275.415,-107.829 275.415,-107.829 279.234,-111.057 272.51,-111.266 283.052,-114.284 283.052,-114.284"/>
</g>
<!-- User -->
<g id="node9" class="node"><title>User</title>
<ellipse fill="none" stroke="black" cx="454.688" cy="-268.5" rx="27" ry="18"/>
<text text-anchor="middle" x="454.688" y="-264.3" font-family="Times,serif" font-size="14.00">User</text>
</g>
<!-- User&#45;&gt;Ticket -->
<g id="edge8" class="edge"><title>User&#45;&gt;Ticket</title>
<path fill="none" stroke="#51d20b" d="M463.373,-243.019C466.664,-229.11 467.728,-212.111 458.688,-200 441.423,-176.871 409.528,-168.405 383.247,-165.568"/>
<ellipse fill="none" stroke="#51d20b" cx="462.297" cy="-246.935" rx="4.00001" ry="4.00001"/>
<polygon fill="#51d20b" stroke="#51d20b" points="383.09,-165.555 373.503,-160.231 378.107,-165.135 373.125,-164.715 373.125,-164.715 373.125,-164.715 378.107,-165.135 372.747,-169.199 383.09,-165.555 383.09,-165.555"/>
<text text-anchor="middle" x="506.85" y="-202.8" font-family="Times,serif" font-size="14.00">notified_tickets</text>
</g>
<!-- User&#45;&gt;Ticket -->
<g id="edge9" class="edge"><title>User&#45;&gt;Ticket</title>
<path fill="none" stroke="#7f0254" d="M427.465,-251.961C406.537,-239.687 379.73,-223.152 370.736,-214 364.027,-207.174 358.128,-198.586 353.373,-190.513"/>
<ellipse fill="none" stroke="#7f0254" cx="431.127" cy="-254.093" rx="4.00002" ry="4.00002"/>
<polygon fill="#7f0254" stroke="#7f0254" points="353.358,-190.485 352.444,-179.558 350.933,-186.113 348.509,-181.74 348.509,-181.74 348.509,-181.74 350.933,-186.113 344.573,-183.922 353.358,-190.485 353.358,-190.485"/>
<text text-anchor="middle" x="412.664" y="-202.8" font-family="Times,serif" font-size="14.00">created_tickets</text>
</g>
</g>
</svg>
