<?xml version="1.0" encoding="UTF-8" standalone="no"?>
<!DOCTYPE svg PUBLIC "-//W3C//DTD SVG 1.1//EN"
 "http://www.w3.org/Graphics/SVG/1.1/DTD/svg11.dtd">
<!-- Generated by graphviz version 2.38.0 (20140413.2041)
 -->
<!-- Title: models_diagram Pages: 1 -->
<svg width="1350pt" height="760pt"
 viewBox="0.00 0.00 1349.55 760.00" xmlns="http://www.w3.org/2000/svg" xmlns:xlink="http://www.w3.org/1999/xlink">
<g id="graph0" class="graph" transform="scale(1 1) rotate(0) translate(4 756)">
<title>models_diagram</title>
<polygon fill="none" stroke="none" points="-4,4 -4,-756 1345.55,-756 1345.55,4 -4,4"/>
<!-- _diagram_info -->
<g id="node1" class="node"><title>_diagram_info</title>
<text text-anchor="start" x="8" y="-667.6" font-family="Times,serif" font-size="13.00">Models diagram</text>
<text text-anchor="start" x="8" y="-654.6" font-family="Times,serif" font-size="13.00">Date: Aug 09 2016 &#45; 15:40</text>
<text text-anchor="start" x="8" y="-641.6" font-family="Times,serif" font-size="13.00">Migration version: 20160809010244</text>
<text text-anchor="start" x="8" y="-628.6" font-family="Times,serif" font-size="13.00">Generated by RailRoady 1.5.1</text>
<text text-anchor="start" x="8" y="-615.6" font-family="Times,serif" font-size="13.00">http://railroady.prestonlee.com</text>
</g>
<!-- Comment -->
<g id="node2" class="node"><title>Comment</title>
<path fill="none" stroke="black" d="M635.825,-152.5C635.825,-152.5 859.55,-152.5 859.55,-152.5 865.55,-152.5 871.55,-158.5 871.55,-164.5 871.55,-164.5 871.55,-254.5 871.55,-254.5 871.55,-260.5 865.55,-266.5 859.55,-266.5 859.55,-266.5 635.825,-266.5 635.825,-266.5 629.825,-266.5 623.825,-260.5 623.825,-254.5 623.825,-254.5 623.825,-164.5 623.825,-164.5 623.825,-158.5 629.825,-152.5 635.825,-152.5"/>
<text text-anchor="middle" x="747.688" y="-251.3" font-family="Times,serif" font-size="14.00">Comment</text>
<polyline fill="none" stroke="black" points="623.825,-244.5 871.55,-244.5 "/>
<text text-anchor="start" x="631.825" y="-229.3" font-family="Times,serif" font-size="14.00">id :integer</text>
<text text-anchor="start" x="631.825" y="-215.3" font-family="Times,serif" font-size="14.00">content :text</text>
<text text-anchor="start" x="631.825" y="-201.3" font-family="Times,serif" font-size="14.00">ticket_id :integer</text>
<text text-anchor="start" x="631.825" y="-187.3" font-family="Times,serif" font-size="14.00">user_id :integer</text>
<text text-anchor="start" x="631.825" y="-173.3" font-family="Times,serif" font-size="14.00">created_at :timestamp without time zone</text>
<text text-anchor="start" x="631.825" y="-159.3" font-family="Times,serif" font-size="14.00">updated_at :timestamp without time zone</text>
</g>
<!-- Picture -->
<g id="node5" class="node"><title>Picture</title>
<path fill="none" stroke="black" d="M527.825,-0.5C527.825,-0.5 751.55,-0.5 751.55,-0.5 757.55,-0.5 763.55,-6.5 763.55,-12.5 763.55,-12.5 763.55,-102.5 763.55,-102.5 763.55,-108.5 757.55,-114.5 751.55,-114.5 751.55,-114.5 527.825,-114.5 527.825,-114.5 521.825,-114.5 515.825,-108.5 515.825,-102.5 515.825,-102.5 515.825,-12.5 515.825,-12.5 515.825,-6.5 521.825,-0.5 527.825,-0.5"/>
<text text-anchor="middle" x="639.688" y="-99.3" font-family="Times,serif" font-size="14.00">Picture</text>
<polyline fill="none" stroke="black" points="515.825,-92.5 763.55,-92.5 "/>
<text text-anchor="start" x="523.825" y="-77.3" font-family="Times,serif" font-size="14.00">id :integer</text>
<text text-anchor="start" x="523.825" y="-63.3" font-family="Times,serif" font-size="14.00">content :character varying</text>
<text text-anchor="start" x="523.825" y="-49.3" font-family="Times,serif" font-size="14.00">imageable_id :integer</text>
<text text-anchor="start" x="523.825" y="-35.3" font-family="Times,serif" font-size="14.00">imageable_type :character varying</text>
<text text-anchor="start" x="523.825" y="-21.3" font-family="Times,serif" font-size="14.00">created_at :timestamp without time zone</text>
<text text-anchor="start" x="523.825" y="-7.3" font-family="Times,serif" font-size="14.00">updated_at :timestamp without time zone</text>
</g>
<!-- Comment&#45;&gt;Picture -->
<g id="edge1" class="edge"><title>Comment&#45;&gt;Picture</title>
<path fill="none" stroke="#d74fbd" d="M702.346,-145.525C696.918,-137.986 691.37,-130.281 685.929,-122.724"/>
<ellipse fill="none" stroke="#d74fbd" cx="704.828" cy="-148.973" rx="4.00002" ry="4.00002"/>
<polygon fill="#d74fbd" stroke="#d74fbd" points="685.921,-122.713 683.73,-111.968 683,-118.655 680.078,-114.598 680.078,-114.598 680.078,-114.598 683,-118.655 676.426,-117.227 685.921,-122.713 685.921,-122.713"/>
</g>
<!-- Company -->
<g id="node3" class="node"><title>Company</title>
<path fill="none" stroke="black" d="M503.825,-595.5C503.825,-595.5 727.55,-595.5 727.55,-595.5 733.55,-595.5 739.55,-601.5 739.55,-607.5 739.55,-607.5 739.55,-683.5 739.55,-683.5 739.55,-689.5 733.55,-695.5 727.55,-695.5 727.55,-695.5 503.825,-695.5 503.825,-695.5 497.825,-695.5 491.825,-689.5 491.825,-683.5 491.825,-683.5 491.825,-607.5 491.825,-607.5 491.825,-601.5 497.825,-595.5 503.825,-595.5"/>
<text text-anchor="middle" x="615.688" y="-680.3" font-family="Times,serif" font-size="14.00">Company</text>
<polyline fill="none" stroke="black" points="491.825,-673.5 739.55,-673.5 "/>
<text text-anchor="start" x="499.825" y="-658.3" font-family="Times,serif" font-size="14.00">id :integer</text>
<text text-anchor="start" x="499.825" y="-644.3" font-family="Times,serif" font-size="14.00">name :character varying</text>
<text text-anchor="start" x="499.825" y="-630.3" font-family="Times,serif" font-size="14.00">created_at :timestamp without time zone</text>
<text text-anchor="start" x="499.825" y="-616.3" font-family="Times,serif" font-size="14.00">updated_at :timestamp without time zone</text>
<text text-anchor="start" x="499.825" y="-602.3" font-family="Times,serif" font-size="14.00">repository :character varying</text>
</g>
<!-- Ticket -->
<g id="node7" class="node"><title>Ticket</title>
<path fill="none" stroke="black" d="M503.825,-304.5C503.825,-304.5 727.55,-304.5 727.55,-304.5 733.55,-304.5 739.55,-310.5 739.55,-316.5 739.55,-316.5 739.55,-476.5 739.55,-476.5 739.55,-482.5 733.55,-488.5 727.55,-488.5 727.55,-488.5 503.825,-488.5 503.825,-488.5 497.825,-488.5 491.825,-482.5 491.825,-476.5 491.825,-476.5 491.825,-316.5 491.825,-316.5 491.825,-310.5 497.825,-304.5 503.825,-304.5"/>
<text text-anchor="middle" x="615.688" y="-473.3" font-family="Times,serif" font-size="14.00">Ticket</text>
<polyline fill="none" stroke="black" points="491.825,-466.5 739.55,-466.5 "/>
<text text-anchor="start" x="499.825" y="-451.3" font-family="Times,serif" font-size="14.00">id :integer</text>
<text text-anchor="start" x="499.825" y="-437.3" font-family="Times,serif" font-size="14.00">notified_by_id :integer</text>
<text text-anchor="start" x="499.825" y="-423.3" font-family="Times,serif" font-size="14.00">created_by_id :integer</text>
<text text-anchor="start" x="499.825" y="-409.3" font-family="Times,serif" font-size="14.00">aasm_state :character varying</text>
<text text-anchor="start" x="499.825" y="-395.3" font-family="Times,serif" font-size="14.00">title :character varying</text>
<text text-anchor="start" x="499.825" y="-381.3" font-family="Times,serif" font-size="14.00">description :character varying</text>
<text text-anchor="start" x="499.825" y="-367.3" font-family="Times,serif" font-size="14.00">closed_at :timestamp without time zone</text>
<text text-anchor="start" x="499.825" y="-353.3" font-family="Times,serif" font-size="14.00">created_at :timestamp without time zone</text>
<text text-anchor="start" x="499.825" y="-339.3" font-family="Times,serif" font-size="14.00">updated_at :timestamp without time zone</text>
<text text-anchor="start" x="499.825" y="-325.3" font-family="Times,serif" font-size="14.00">issue_type_id :integer</text>
<text text-anchor="start" x="499.825" y="-311.3" font-family="Times,serif" font-size="14.00">company_id :integer</text>
</g>
<!-- Company&#45;&gt;Ticket -->
<g id="edge2" class="edge"><title>Company&#45;&gt;Ticket</title>
<path fill="none" stroke="#f03b51" d="M615.688,-587.348C615.688,-561.058 615.688,-529.062 615.688,-498.888"/>
<ellipse fill="none" stroke="#f03b51" cx="615.688" cy="-591.405" rx="4" ry="4"/>
<polygon fill="#f03b51" stroke="#f03b51" points="615.688,-498.735 620.188,-488.735 615.688,-493.735 615.688,-488.735 615.688,-488.735 615.688,-488.735 615.688,-493.735 611.188,-488.735 615.688,-498.735 615.688,-498.735"/>
</g>
<!-- IssueType -->
<g id="node4" class="node"><title>IssueType</title>
<path fill="none" stroke="black" d="M1105.83,-602.5C1105.83,-602.5 1329.55,-602.5 1329.55,-602.5 1335.55,-602.5 1341.55,-608.5 1341.55,-614.5 1341.55,-614.5 1341.55,-676.5 1341.55,-676.5 1341.55,-682.5 1335.55,-688.5 1329.55,-688.5 1329.55,-688.5 1105.83,-688.5 1105.83,-688.5 1099.83,-688.5 1093.83,-682.5 1093.83,-676.5 1093.83,-676.5 1093.83,-614.5 1093.83,-614.5 1093.83,-608.5 1099.83,-602.5 1105.83,-602.5"/>
<text text-anchor="middle" x="1217.69" y="-673.3" font-family="Times,serif" font-size="14.00">IssueType</text>
<polyline fill="none" stroke="black" points="1093.83,-666.5 1341.55,-666.5 "/>
<text text-anchor="start" x="1101.83" y="-651.3" font-family="Times,serif" font-size="14.00">id :integer</text>
<text text-anchor="start" x="1101.83" y="-637.3" font-family="Times,serif" font-size="14.00">name :character varying</text>
<text text-anchor="start" x="1101.83" y="-623.3" font-family="Times,serif" font-size="14.00">created_at :timestamp without time zone</text>
<text text-anchor="start" x="1101.83" y="-609.3" font-family="Times,serif" font-size="14.00">updated_at :timestamp without time zone</text>
</g>
<!-- Tag -->
<g id="node6" class="node"><title>Tag</title>
<path fill="none" stroke="black" d="M237.825,-602.5C237.825,-602.5 461.55,-602.5 461.55,-602.5 467.55,-602.5 473.55,-608.5 473.55,-614.5 473.55,-614.5 473.55,-676.5 473.55,-676.5 473.55,-682.5 467.55,-688.5 461.55,-688.5 461.55,-688.5 237.825,-688.5 237.825,-688.5 231.825,-688.5 225.825,-682.5 225.825,-676.5 225.825,-676.5 225.825,-614.5 225.825,-614.5 225.825,-608.5 231.825,-602.5 237.825,-602.5"/>
<text text-anchor="middle" x="349.688" y="-673.3" font-family="Times,serif" font-size="14.00">Tag</text>
<polyline fill="none" stroke="black" points="225.825,-666.5 473.55,-666.5 "/>
<text text-anchor="start" x="233.825" y="-651.3" font-family="Times,serif" font-size="14.00">id :integer</text>
<text text-anchor="start" x="233.825" y="-637.3" font-family="Times,serif" font-size="14.00">name :character varying</text>
<text text-anchor="start" x="233.825" y="-623.3" font-family="Times,serif" font-size="14.00">created_at :timestamp without time zone</text>
<text text-anchor="start" x="233.825" y="-609.3" font-family="Times,serif" font-size="14.00">updated_at :timestamp without time zone</text>
</g>
<!-- Tag&#45;&gt;Ticket -->
<g id="edge4" class="edge"><title>Tag&#45;&gt;Ticket</title>
<path fill="none" stroke="#777bef" d="M402.793,-595.188C433.405,-566.762 472.99,-530.005 509.707,-495.911"/>
<polygon fill="#777bef" stroke="#777bef" points="402.44,-595.515 392.05,-599.022 398.777,-598.918 395.113,-602.32 395.113,-602.32 395.113,-602.32 398.777,-598.918 398.175,-605.617 402.44,-595.515 402.44,-595.515"/>
<polygon fill="#777bef" stroke="#777bef" points="510.166,-495.485 520.556,-491.978 513.83,-492.082 517.494,-488.68 517.494,-488.68 517.494,-488.68 513.83,-492.082 514.432,-485.383 510.166,-495.485 510.166,-495.485"/>
</g>
<!-- TicketsTag -->
<g id="node8" class="node"><title>TicketsTag</title>
<path fill="none" stroke="black" d="M304.825,-159.5C304.825,-159.5 528.55,-159.5 528.55,-159.5 534.55,-159.5 540.55,-165.5 540.55,-171.5 540.55,-171.5 540.55,-247.5 540.55,-247.5 540.55,-253.5 534.55,-259.5 528.55,-259.5 528.55,-259.5 304.825,-259.5 304.825,-259.5 298.825,-259.5 292.825,-253.5 292.825,-247.5 292.825,-247.5 292.825,-171.5 292.825,-171.5 292.825,-165.5 298.825,-159.5 304.825,-159.5"/>
<text text-anchor="middle" x="416.688" y="-244.3" font-family="Times,serif" font-size="14.00">TicketsTag</text>
<polyline fill="none" stroke="black" points="292.825,-237.5 540.55,-237.5 "/>
<text text-anchor="start" x="300.825" y="-222.3" font-family="Times,serif" font-size="14.00">id :integer</text>
<text text-anchor="start" x="300.825" y="-208.3" font-family="Times,serif" font-size="14.00">ticket_id :integer</text>
<text text-anchor="start" x="300.825" y="-194.3" font-family="Times,serif" font-size="14.00">tag_id :integer</text>
<text text-anchor="start" x="300.825" y="-180.3" font-family="Times,serif" font-size="14.00">created_at :timestamp without time zone</text>
<text text-anchor="start" x="300.825" y="-166.3" font-family="Times,serif" font-size="14.00">updated_at :timestamp without time zone</text>
</g>
<!-- Tag&#45;&gt;TicketsTag -->
<g id="edge3" class="edge"><title>Tag&#45;&gt;TicketsTag</title>
<path fill="none" stroke="#a42546" d="M357.421,-594.406C369.852,-513.887 394.225,-356.006 407.514,-269.922"/>
<ellipse fill="none" stroke="#a42546" cx="356.783" cy="-598.539" rx="4.00001" ry="4.00001"/>
<polygon fill="#a42546" stroke="#a42546" points="407.553,-269.672 413.526,-260.476 408.316,-264.731 409.079,-259.789 409.079,-259.789 409.079,-259.789 408.316,-264.731 404.631,-259.103 407.553,-269.672 407.553,-269.672"/>
</g>
<!-- Ticket&#45;&gt;Comment -->
<g id="edge5" class="edge"><title>Ticket&#45;&gt;Comment</title>
<path fill="none" stroke="#84324e" d="M685.451,-297.726C690.905,-290.082 696.325,-282.486 701.561,-275.148"/>
<ellipse fill="none" stroke="#84324e" cx="683.044" cy="-301.099" rx="4.00002" ry="4.00002"/>
<polygon fill="#84324e" stroke="#84324e" points="701.805,-274.805 711.277,-269.278 704.709,-270.735 707.613,-266.665 707.613,-266.665 707.613,-266.665 704.709,-270.735 703.95,-264.051 701.805,-274.805 701.805,-274.805"/>
</g>
<!-- Ticket&#45;&gt;Picture -->
<g id="edge6" class="edge"><title>Ticket&#45;&gt;Picture</title>
<path fill="none" stroke="#97a167" d="M609.257,-296.19C607.936,-251.886 608.493,-199.153 614.688,-152 615.861,-143.069 617.639,-133.778 619.718,-124.67"/>
<ellipse fill="none" stroke="#97a167" cx="609.394" cy="-300.363" rx="4" ry="4"/>
<polygon fill="#97a167" stroke="#97a167" points="619.733,-124.605 626.451,-115.938 620.905,-119.744 622.076,-114.884 622.076,-114.884 622.076,-114.884 620.905,-119.744 617.702,-113.829 619.733,-124.605 619.733,-124.605"/>
</g>
<!-- Ticket&#45;&gt;TicketsTag -->
<g id="edge7" class="edge"><title>Ticket&#45;&gt;TicketsTag</title>
<path fill="none" stroke="#bd3b28" d="M511.429,-298.576C499.652,-287.628 487.965,-276.762 477.028,-266.595"/>
<ellipse fill="none" stroke="#bd3b28" cx="514.716" cy="-301.631" rx="4.00002" ry="4.00002"/>
<polygon fill="#bd3b28" stroke="#bd3b28" points="476.909,-266.484 472.649,-256.38 473.247,-263.08 469.585,-259.676 469.585,-259.676 469.585,-259.676 473.247,-263.08 466.521,-262.972 476.909,-266.484 476.909,-266.484"/>
</g>
<!-- User -->
<g id="node9" class="node"><title>User</title>
<path fill="none" stroke="black" d="M769.053,-539.5C769.053,-539.5 1064.32,-539.5 1064.32,-539.5 1070.32,-539.5 1076.32,-545.5 1076.32,-551.5 1076.32,-551.5 1076.32,-739.5 1076.32,-739.5 1076.32,-745.5 1070.32,-751.5 1064.32,-751.5 1064.32,-751.5 769.053,-751.5 769.053,-751.5 763.053,-751.5 757.053,-745.5 757.053,-739.5 757.053,-739.5 757.053,-551.5 757.053,-551.5 757.053,-545.5 763.053,-539.5 769.053,-539.5"/>
<text text-anchor="middle" x="916.688" y="-736.3" font-family="Times,serif" font-size="14.00">User</text>
<polyline fill="none" stroke="black" points="757.053,-729.5 1076.32,-729.5 "/>
<text text-anchor="start" x="765.053" y="-714.3" font-family="Times,serif" font-size="14.00">id :integer</text>
<text text-anchor="start" x="765.053" y="-700.3" font-family="Times,serif" font-size="14.00">email :character varying</text>
<text text-anchor="start" x="765.053" y="-686.3" font-family="Times,serif" font-size="14.00">encrypted_password :character varying</text>
<text text-anchor="start" x="765.053" y="-672.3" font-family="Times,serif" font-size="14.00">reset_password_token :character varying</text>
<text text-anchor="start" x="765.053" y="-658.3" font-family="Times,serif" font-size="14.00">reset_password_sent_at :timestamp without time zone</text>
<text text-anchor="start" x="765.053" y="-644.3" font-family="Times,serif" font-size="14.00">remember_created_at :timestamp without time zone</text>
<text text-anchor="start" x="765.053" y="-630.3" font-family="Times,serif" font-size="14.00">sign_in_count :integer</text>
<text text-anchor="start" x="765.053" y="-616.3" font-family="Times,serif" font-size="14.00">current_sign_in_at :timestamp without time zone</text>
<text text-anchor="start" x="765.053" y="-602.3" font-family="Times,serif" font-size="14.00">last_sign_in_at :timestamp without time zone</text>
<text text-anchor="start" x="765.053" y="-588.3" font-family="Times,serif" font-size="14.00">current_sign_in_ip :character varying</text>
<text text-anchor="start" x="765.053" y="-574.3" font-family="Times,serif" font-size="14.00">last_sign_in_ip :character varying</text>
<text text-anchor="start" x="765.053" y="-560.3" font-family="Times,serif" font-size="14.00">created_at :timestamp without time zone</text>
<text text-anchor="start" x="765.053" y="-546.3" font-family="Times,serif" font-size="14.00">updated_at :timestamp without time zone</text>
</g>
<!-- User&#45;&gt;Ticket -->
<g id="edge8" class="edge"><title>User&#45;&gt;Ticket</title>
<path fill="none" stroke="#b8e8b8" d="M807.49,-533.669C797.286,-524.414 786.928,-515.397 776.688,-507 767.6,-499.548 758.012,-492.101 748.226,-484.794"/>
<ellipse fill="none" stroke="#b8e8b8" cx="810.526" cy="-536.444" rx="4.00002" ry="4.00002"/>
<polygon fill="#b8e8b8" stroke="#b8e8b8" points="748.01,-484.635 742.64,-475.073 743.988,-481.664 739.966,-478.693 739.966,-478.693 739.966,-478.693 743.988,-481.664 737.293,-482.313 748.01,-484.635 748.01,-484.635"/>
<text text-anchor="middle" x="835.85" y="-509.8" font-family="Times,serif" font-size="14.00">notified_tickets</text>
</g>
<!-- User&#45;&gt;Ticket -->
<g id="edge9" class="edge"><title>User&#45;&gt;Ticket</title>
<path fill="none" stroke="#7a4b68" d="M749.438,-539.341C749.188,-539.227 748.938,-539.113 748.688,-539 723.356,-527.498 710.642,-538.149 688.736,-521 679.86,-514.052 671.841,-505.703 664.651,-496.664"/>
<ellipse fill="none" stroke="#7a4b68" cx="753.081" cy="-541.043" rx="4.00002" ry="4.00002"/>
<polygon fill="#7a4b68" stroke="#7a4b68" points="664.564,-496.548 662.14,-485.853 661.555,-492.554 658.546,-488.561 658.546,-488.561 658.546,-488.561 661.555,-492.554 654.952,-491.269 664.564,-496.548 664.564,-496.548"/>
<text text-anchor="middle" x="730.664" y="-509.8" font-family="Times,serif" font-size="14.00">created_tickets</text>
</g>
</g>
</svg>
